<?xml version="1.0" encoding="UTF-8" standalone="no"?>
<!DOCTYPE svg PUBLIC "-//W3C//DTD SVG 1.1//EN" "http://www.w3.org/Graphics/SVG/1.1/DTD/svg11.dtd">
<svg width="100%" height="100%" viewBox="0 0 2732 570" version="1.1" xmlns="http://www.w3.org/2000/svg" xmlns:xlink="http://www.w3.org/1999/xlink" xml:space="preserve" xmlns:serif="http://www.serif.com/" style="fill-rule:evenodd;clip-rule:evenodd;">
    <g id="Final">
        <g>
            <path d="M2401.76,84.281C2416.86,84.248 2431.97,84.222 2447.07,84.236C2450.77,84.239 2454.48,84.214 2458.18,84.267C2462.98,84.404 2468.08,84.29 2468.43,86.005C2468.77,87.721 2438.94,118.865 2437.33,119.795C2435.72,120.725 2429.95,120.667 2427.74,120.672C2425.54,120.678 2415.6,120.699 2367.1,121.262C2363.86,121.299 2357.33,122.195 2353.02,127.33C2347.81,133.525 2348.55,141.8 2348.54,145.4C2348.47,165.026 2348.44,173.571 2348.4,193.642L2348.39,193.602C2348.44,275.64 2348,360.647 2347.96,361.903C2347.8,366.7 2347.89,371.784 2346.17,372.136C2344.45,372.488 2313.85,338.579 2312.45,335.207C2311.16,332.081 2311.61,325.643 2311.61,325.643C2311.61,325.643 2312.45,249.346 2312.57,193.72C2312.61,173.649 2312.56,165.104 2312.58,145.478C2312.59,141.878 2313.37,133.6 2308.18,127.428C2303.89,122.311 2297.37,121.444 2294.13,121.42C2245.64,121.379 2235.35,121.517 2233.72,121.533C2232.09,121.549 2226.14,121.497 2223.9,120.259C2221.66,119.021 2192.6,88.321 2192.95,86.604C2193.31,84.887 2198.4,84.979 2203.21,84.821C2204.47,84.78 2248.47,84.497 2330.69,84.544C2354.38,84.424 2378.07,84.341 2401.76,84.281Z" style="fill:rgb(88,182,204);fill-rule:nonzero;"/>
            <path d="M2401.76,84.281C2416.86,84.248 2431.97,84.222 2447.07,84.236C2450.77,84.239 2454.48,84.214 2458.18,84.267C2462.98,84.404 2468.08,84.29 2468.43,86.005C2468.77,87.721 2438.94,118.865 2437.33,119.795C2435.72,120.725 2429.95,120.667 2427.74,120.672C2425.54,120.678 2415.6,120.699 2367.1,121.262C2363.86,121.299 2357.33,122.195 2353.02,127.33C2347.81,133.525 2348.55,141.8 2348.54,145.4C2348.47,165.026 2348.44,173.571 2348.4,193.642L2348.39,193.602C2348.44,275.64 2348,360.647 2347.96,361.903C2347.8,366.7 2347.89,371.784 2346.17,372.136C2344.45,372.488 2313.85,338.579 2312.45,335.207C2311.16,332.081 2311.61,325.643 2311.61,325.643C2311.61,325.643 2312.45,249.346 2312.57,193.72C2312.61,173.649 2312.56,165.104 2312.58,145.478C2312.59,141.878 2313.37,133.6 2308.18,127.428C2303.89,122.311 2297.37,121.444 2294.13,121.42C2245.64,121.379 2235.35,121.517 2233.72,121.533C2232.09,121.549 2226.14,121.497 2223.9,120.259C2221.66,119.021 2192.6,88.321 2192.95,86.604C2193.31,84.887 2198.4,84.979 2203.21,84.821C2204.47,84.78 2248.47,84.497 2330.69,84.544C2354.38,84.424 2378.07,84.341 2401.76,84.281Z" style="fill-opacity:0;fill-rule:nonzero;stroke:rgb(88,182,204);stroke-width:3px;"/>
        </g>
        <g>
            <path d="M2164.5,373.197C2162.78,373.549 2133.85,340.098 2132.46,336.726C2131.17,333.6 2131.62,327.162 2131.62,327.162L2130.78,228.345L2131.54,130.809C2131.54,130.809 2131.09,124.37 2132.38,121.244C2133.78,117.873 2163.46,84.03 2165.18,84.382C2166.91,84.734 2166.81,89.818 2166.97,94.615C2167.01,95.871 2166.33,146.347 2166.29,228.385L2166.28,228.345C2166.33,310.383 2166.33,361.749 2166.29,363.004C2166.13,367.801 2166.22,372.885 2164.5,373.237" style="fill:rgb(88,182,204);fill-rule:nonzero;"/>
            <path d="M2164.5,373.197C2162.78,373.549 2133.85,340.098 2132.46,336.726C2131.17,333.6 2131.62,327.162 2131.62,327.162L2130.78,228.345L2131.54,130.809C2131.54,130.809 2131.09,124.37 2132.38,121.244C2133.78,117.873 2163.46,84.03 2165.18,84.382C2166.91,84.734 2166.81,89.818 2166.97,94.615C2167.01,95.871 2166.33,146.347 2166.29,228.385L2166.28,228.345C2166.33,310.383 2166.33,361.749 2166.29,363.004C2166.13,367.801 2166.22,372.885 2164.5,373.237" style="fill-opacity:0;fill-rule:nonzero;stroke:rgb(88,182,204);stroke-width:3px;"/>
        </g>
        <g transform="matrix(1,0,0,1,13,0)">
            <path d="M1369.66,156.551C1370.01,158.272 1338.62,186.726 1335.25,188.12C1332.12,189.413 1325.04,189.416 1325.04,189.416L1282.61,189.703C1282.61,189.703 1275.55,190.101 1271.75,191.74C1267.96,193.38 1261.03,199.488 1261.03,199.488L1239.84,217.351C1239.84,217.351 1235.51,222.081 1234.19,225.498C1232.88,228.914 1233.01,236.536 1233.01,236.536C1233.4,267.242 1233.4,290.95 1233.4,290.95C1233.4,290.95 1233.27,298.571 1234.58,301.988C1235.9,305.404 1240.24,310.135 1240.24,310.135L1261.42,327.998C1261.42,327.998 1268.35,334.106 1272.14,335.746C1275.94,337.385 1283,337.783 1283,337.783L1325.43,336.778C1325.43,336.778 1332.51,336.781 1335.64,338.074C1339.01,339.468 1370.4,367.922 1370.05,369.643C1369.69,371.363 1364.61,371.271 1359.81,371.43C1358.62,371.469 1273.04,372.484 1273.04,372.484C1273.04,372.484 1265.12,372.255 1261.91,371.186C1258.7,370.117 1250.8,364.059 1250.8,364.059L1205.54,324.196C1205.54,324.196 1200.29,318.677 1198.84,314.734C1197.4,310.792 1197.68,302.182 1197.68,302.182C1197.68,302.182 1197.66,267.242 1197.55,225.304C1197.55,225.304 1197.27,216.694 1198.71,212.751C1200.16,208.809 1205.41,203.29 1205.41,203.29L1250.67,163.427C1250.67,163.427 1258.57,157.368 1261.78,156.299C1264.99,155.23 1272.91,155.002 1272.91,155.002C1272.91,155.002 1358.49,154.725 1359.68,154.764C1364.48,154.923 1369.57,154.83 1369.92,156.551" style="fill:rgb(204,94,88);fill-rule:nonzero;"/>
            <path d="M1369.66,156.551C1370.01,158.272 1338.62,186.726 1335.25,188.12C1332.12,189.413 1325.04,189.416 1325.04,189.416L1282.61,189.703C1282.61,189.703 1275.55,190.101 1271.75,191.74C1267.96,193.38 1261.03,199.488 1261.03,199.488L1239.84,217.351C1239.84,217.351 1235.51,222.081 1234.19,225.498C1232.88,228.914 1233.01,236.536 1233.01,236.536C1233.4,267.242 1233.4,290.95 1233.4,290.95C1233.4,290.95 1233.27,298.571 1234.58,301.988C1235.9,305.404 1240.24,310.135 1240.24,310.135L1261.42,327.998C1261.42,327.998 1268.35,334.106 1272.14,335.746C1275.94,337.385 1283,337.783 1283,337.783L1325.43,336.778C1325.43,336.778 1332.51,336.781 1335.64,338.074C1339.01,339.468 1370.4,367.922 1370.05,369.643C1369.69,371.363 1364.61,371.271 1359.81,371.43C1358.62,371.469 1273.04,372.484 1273.04,372.484C1273.04,372.484 1265.12,372.255 1261.91,371.186C1258.7,370.117 1250.8,364.059 1250.8,364.059L1205.54,324.196C1205.54,324.196 1200.29,318.677 1198.84,314.734C1197.4,310.792 1197.68,302.182 1197.68,302.182C1197.68,302.182 1197.66,267.242 1197.55,225.304C1197.55,225.304 1197.27,216.694 1198.71,212.751C1200.16,208.809 1205.41,203.29 1205.41,203.29L1250.67,163.427C1250.67,163.427 1258.57,157.368 1261.78,156.299C1264.99,155.23 1272.91,155.002 1272.91,155.002C1272.91,155.002 1358.49,154.725 1359.68,154.764C1364.48,154.923 1369.57,154.83 1369.92,156.551" style="fill-opacity:0;fill-rule:nonzero;stroke:rgb(204,94,88);stroke-width:3px;"/>
        </g>
        <g transform="matrix(1,0,0,1,13,0)">
            <path d="M1145.65,372.485C1147.37,372.133 1147.28,367.048 1147.44,362.252C1148.17,179.71 1147.48,166.79 1147.43,165.534C1147.28,160.737 1147.37,155.653 1145.65,155.301C1143.93,154.949 1114.24,188.791 1112.84,192.163C1111.55,195.289 1112.01,201.727 1112.01,201.727C1112.7,255.472 1112.77,326.409 1112.77,326.409C1112.77,326.409 1112.32,332.847 1113.61,335.973C1115.01,339.345 1143.94,372.796 1145.66,372.444L1145.65,372.404" style="fill:rgb(204,94,88);fill-rule:nonzero;"/>
            <path d="M1145.65,372.485C1147.37,372.133 1147.28,367.048 1147.44,362.252C1148.17,179.71 1147.48,166.79 1147.43,165.534C1147.28,160.737 1147.37,155.653 1145.65,155.301C1143.93,154.949 1114.24,188.791 1112.84,192.163C1111.55,195.289 1112.01,201.727 1112.01,201.727C1112.7,255.472 1112.77,326.409 1112.77,326.409C1112.77,326.409 1112.32,332.847 1113.61,335.973C1115.01,339.345 1143.94,372.796 1145.66,372.444L1145.65,372.404" style="fill-opacity:0;fill-rule:nonzero;stroke:rgb(204,94,88);stroke-width:3px;"/>
        </g>
        <g transform="matrix(6.12323e-17,1,-0.485644,2.97371e-17,377.843,-865.89)">
            <path d="M1145.65,372.485C1147.37,372.133 1147.28,367.048 1147.44,362.252C1148.17,179.71 1147.48,166.79 1147.43,165.534C1147.28,160.737 1147.37,155.653 1145.65,155.301C1143.93,154.949 1114.24,188.791 1112.84,192.163C1111.55,195.289 1112.01,201.727 1112.01,201.727C1112.7,255.472 1112.77,326.409 1112.77,326.409C1112.77,326.409 1112.32,332.847 1113.61,335.973C1115.01,339.345 1143.94,372.796 1145.66,372.444L1145.65,372.404" style="fill:rgb(204,94,88);fill-rule:nonzero;"/>
            <path d="M1145.65,372.485C1147.37,372.133 1147.28,367.048 1147.44,362.252C1148.17,179.71 1147.48,166.79 1147.43,165.534C1147.28,160.737 1147.37,155.653 1145.65,155.301C1143.93,154.949 1114.24,188.791 1112.84,192.163C1111.55,195.289 1112.01,201.727 1112.01,201.727C1112.7,255.472 1112.77,326.409 1112.77,326.409C1112.77,326.409 1112.32,332.847 1113.61,335.973C1115.01,339.345 1143.94,372.796 1145.66,372.444L1145.65,372.404" style="fill-opacity:0;fill-rule:nonzero;stroke:rgb(204,94,88);stroke-width:3px;"/>
        </g>
        <g transform="matrix(1,0,0,1,13,0)">
            <path d="M735.942,289.064L662.912,363.175C662.913,363.176 653.837,372.253 635.894,372.462C617.951,372.671 609.084,363.805 609.084,363.805L536.056,292.211C536.057,292.212 527.19,283.345 527.399,265.402C527.608,247.459 536.684,238.383 536.684,238.383L609.711,164.272C609.712,164.272 618.788,155.197 636.731,154.988C654.674,154.779 663.54,163.646 663.54,163.646L737.197,234.608C737.197,234.609 746.064,243.475 745.855,261.418C745.646,279.361 736.57,288.437 736.57,288.437M636.173,202.834C624.211,202.974 618.161,209.024 618.16,209.024L581.436,246.832C581.436,246.832 575.385,252.882 575.246,264.844C575.106,276.806 581.018,282.717 581.017,282.717L619.206,318.841C619.206,318.842 625.117,324.753 637.079,324.613C649.041,324.474 655.092,318.423 655.091,318.423L691.816,280.616C691.816,280.616 697.867,274.565 698.006,262.603C698.146,250.641 692.235,244.73 692.234,244.73L654.046,209.024L654.046,208.606C654.046,208.606 648.135,202.695 636.173,202.834Z" style="fill:rgb(204,94,88);fill-rule:nonzero;"/>
            <path d="M735.942,289.064L662.912,363.175C662.913,363.176 653.837,372.253 635.894,372.462C617.951,372.671 609.084,363.805 609.084,363.805L536.056,292.211C536.057,292.212 527.19,283.345 527.399,265.402C527.608,247.459 536.684,238.383 536.684,238.383L609.711,164.272C609.712,164.272 618.788,155.197 636.731,154.988C654.674,154.779 663.54,163.646 663.54,163.646L737.197,234.608C737.197,234.609 746.064,243.475 745.855,261.418C745.646,279.361 736.57,288.437 736.57,288.437M636.173,202.834C624.211,202.974 618.161,209.024 618.16,209.024L581.436,246.832C581.436,246.832 575.385,252.882 575.246,264.844C575.106,276.806 581.018,282.717 581.017,282.717L619.206,318.841C619.206,318.842 625.117,324.753 637.079,324.613C649.041,324.474 655.092,318.423 655.091,318.423L691.816,280.616C691.816,280.616 697.867,274.565 698.006,262.603C698.146,250.641 692.235,244.73 692.234,244.73L654.046,209.024L654.046,208.606C654.046,208.606 648.135,202.695 636.173,202.834Z" style="fill-opacity:0;fill-rule:nonzero;stroke:rgb(204,94,88);stroke-width:3px;"/>
        </g>
        <g transform="matrix(1,0,0,1,19,0)">
            <path d="M229.518,83.757C236.984,83.879 243.189,89.376 248.512,98.255C259.255,114.184 370.824,360.064 371.897,362.062C374.171,366.296 376.799,370.651 375.545,371.846C374.292,373.042 329.565,348.669 326.715,346.472C324.072,344.435 321.221,338.625 321.221,338.625L250.803,180.08C250.803,180.08 239.572,156.556 231.545,156.556C221.572,156.556 212.287,180.08 212.287,180.08L141.221,338.625C141.221,338.625 138.369,344.435 135.726,346.472C132.876,348.669 88.799,372.638 87.545,371.442C86.292,370.246 88.919,365.892 91.193,361.657C92.266,359.659 199.78,114.184 210.523,98.255C215.846,89.376 222.524,84.031 229.518,83.757Z" style="fill:rgb(204,94,88);fill-rule:nonzero;"/>
            <path d="M229.518,83.757C236.984,83.879 243.189,89.376 248.512,98.255C259.255,114.184 370.824,360.064 371.897,362.062C374.171,366.296 376.799,370.651 375.545,371.846C374.292,373.042 329.565,348.669 326.715,346.472C324.072,344.435 321.221,338.625 321.221,338.625L250.803,180.08C250.803,180.08 239.572,156.556 231.545,156.556C221.572,156.556 212.287,180.08 212.287,180.08L141.221,338.625C141.221,338.625 138.369,344.435 135.726,346.472C132.876,348.669 88.799,372.638 87.545,371.442C86.292,370.246 88.919,365.892 91.193,361.657C92.266,359.659 199.78,114.184 210.523,98.255C215.846,89.376 222.524,84.031 229.518,83.757Z" style="fill-opacity:0;fill-rule:nonzero;stroke:rgb(204,94,88);stroke-width:3px;"/>
        </g>
        <g>
            <path d="M2011.26,85.167C2011.26,85.167 1885.04,85.403 1883.78,85.444C1878.97,85.602 1873.88,85.51 1873.53,87.227C1873.17,88.944 1903.46,118.339 1905.7,119.577C1907.94,120.815 1913.89,120.866 1915.52,120.85C1917.15,120.835 2005.52,120.85 2005.52,120.85C2005.52,120.85 2009.14,120.246 2013.69,124.56C2013.69,124.56 2042.86,159.668 2042.86,165.795C2042.86,171.922 2017.54,202.57 2013.23,206.885C2008.91,211.199 2005.52,210.85 2005.52,210.85C1923.29,210.804 1885.04,211.208 1883.78,211.249C1878.97,211.408 1873.88,211.316 1873.53,213.032C1873.17,214.749 1903.46,244.339 1905.7,245.577C1907.94,246.815 1913.89,246.866 1915.52,246.85C1917.15,246.835 1957.04,246.809 2005.52,246.85C2005.52,246.85 2010.34,246.4 2014.32,250.649C2018.29,254.898 2041.73,286.289 2041.96,291.962C2042.18,297.635 2019.08,327.544 2014.64,331.722C2010.21,335.9 2005.52,336.85 2005.52,336.85C1923.29,336.804 1885.04,336.777 1883.78,336.819C1878.97,336.977 1873.88,336.885 1873.53,338.601C1873.17,340.318 1903.46,370.363 1905.7,371.601C1907.94,372.839 1913.89,372.891 1915.52,372.875C1917.15,372.859 1963.04,372.833 2011.52,372.875C2011.52,372.875 2024.97,371.279 2031.13,368.087C2037.28,364.895 2041.73,360.492 2041.73,360.492C2041.73,360.492 2089.84,300.132 2089.61,292.416C2089.38,284.701 2047.87,236.311 2047.52,228.85C2047.17,221.39 2089.61,173.283 2089.61,165.795C2089.61,158.306 2041.93,97.749 2041.93,97.749C2041.93,97.749 2037.92,92.979 2031.25,89.545C2024.57,86.111 2011.26,85.167 2011.26,85.167Z" style="fill:rgb(88,182,204);fill-rule:nonzero;"/>
            <path d="M2011.26,85.167C2011.26,85.167 1885.04,85.403 1883.78,85.444C1878.97,85.602 1873.88,85.51 1873.53,87.227C1873.17,88.944 1903.46,118.339 1905.7,119.577C1907.94,120.815 1913.89,120.866 1915.52,120.85C1917.15,120.835 2005.52,120.85 2005.52,120.85C2005.52,120.85 2009.14,120.246 2013.69,124.56C2013.69,124.56 2042.86,159.668 2042.86,165.795C2042.86,171.922 2017.54,202.57 2013.23,206.885C2008.91,211.199 2005.52,210.85 2005.52,210.85C1923.29,210.804 1885.04,211.208 1883.78,211.249C1878.97,211.408 1873.88,211.316 1873.53,213.032C1873.17,214.749 1903.46,244.339 1905.7,245.577C1907.94,246.815 1913.89,246.866 1915.52,246.85C1917.15,246.835 1957.04,246.809 2005.52,246.85C2005.52,246.85 2010.34,246.4 2014.32,250.649C2018.29,254.898 2041.73,286.289 2041.96,291.962C2042.18,297.635 2019.08,327.544 2014.64,331.722C2010.21,335.9 2005.52,336.85 2005.52,336.85C1923.29,336.804 1885.04,336.777 1883.78,336.819C1878.97,336.977 1873.88,336.885 1873.53,338.601C1873.17,340.318 1903.46,370.363 1905.7,371.601C1907.94,372.839 1913.89,372.891 1915.52,372.875C1917.15,372.859 1963.04,372.833 2011.52,372.875C2011.52,372.875 2024.97,371.279 2031.13,368.087C2037.28,364.895 2041.73,360.492 2041.73,360.492C2041.73,360.492 2089.84,300.132 2089.61,292.416C2089.38,284.701 2047.87,236.311 2047.52,228.85C2047.17,221.39 2089.61,173.283 2089.61,165.795C2089.61,158.306 2041.93,97.749 2041.93,97.749C2041.93,97.749 2037.92,92.979 2031.25,89.545C2024.57,86.111 2011.26,85.167 2011.26,85.167Z" style="fill-opacity:0;fill-rule:nonzero;stroke:rgb(88,182,204);stroke-width:3px;"/>
        </g>
        <g>
            <path d="M2527.64,246.475C2527.64,246.475 2518.15,246.475 2511.34,245.673C2503.94,244.8 2487.71,229.059 2487.71,229.059C2487.71,229.059 2471.14,213.294 2469.27,206.663C2468.29,203.209 2468.44,194.773 2468.44,194.773L2468.44,135.869C2468.44,135.869 2468.29,127.433 2469.27,123.979C2471.14,117.348 2487.71,101.583 2487.71,101.583C2487.71,101.583 2503.94,85.842 2511.34,84.969C2518.15,84.167 2527.64,84.167 2527.64,84.167C2527.64,84.167 2631.62,83.72 2632.82,83.759C2637.61,83.917 2642.7,83.825 2643.05,85.546C2643.4,87.267 2610.39,117.177 2607.02,118.571C2603.9,119.864 2596.82,119.867 2596.82,119.867L2530.82,119.829C2530.82,119.829 2524.16,119.595 2520.37,121.235C2516.57,122.874 2512.42,127.318 2512.42,127.318C2512.42,127.318 2506.52,132.887 2505.2,136.304C2503.89,139.721 2504.02,147.342 2504.02,147.342L2504.02,183.3C2504.02,183.3 2503.89,190.921 2505.2,194.338C2506.52,197.754 2512.42,203.324 2512.42,203.324C2512.42,203.324 2516.57,207.767 2520.37,209.407C2524.16,211.046 2530.82,210.813 2530.82,210.813C2530.82,210.813 2596.06,209.896 2602.86,210.698C2610.27,211.571 2626.5,227.312 2626.5,227.312C2626.5,227.312 2643.07,243.077 2644.94,249.708C2645.92,253.162 2645.77,261.598 2645.77,261.598L2645.77,320.502C2645.77,320.502 2645.92,328.938 2644.94,332.392C2643.07,339.023 2626.5,354.788 2626.5,354.788C2626.5,354.788 2610.27,370.529 2602.86,371.402C2596.06,372.204 2586.56,372.204 2586.56,372.204C2586.56,372.204 2482.59,372.651 2481.39,372.612C2476.6,372.453 2471.51,372.546 2471.16,370.825C2470.81,369.104 2503.81,339.194 2507.18,337.8C2510.31,336.507 2517.39,336.504 2517.39,336.504L2583.39,336.542C2583.39,336.542 2590.05,336.776 2593.84,335.136C2597.64,333.497 2601.78,329.053 2601.78,329.053C2601.78,329.053 2607.69,323.483 2609.01,320.067C2610.32,316.65 2610.19,309.029 2610.19,309.029L2610.19,273.071C2610.19,273.071 2610.32,265.45 2609.01,262.033C2607.69,258.617 2601.78,253.047 2601.78,253.047C2601.78,253.047 2597.64,248.604 2593.84,246.964C2590.05,245.324 2527.64,246.475 2527.64,246.475" style="fill:rgb(88,182,204);fill-rule:nonzero;"/>
            <path d="M2527.64,246.475C2527.64,246.475 2518.15,246.475 2511.34,245.673C2503.94,244.8 2487.71,229.059 2487.71,229.059C2487.71,229.059 2471.14,213.294 2469.27,206.663C2468.29,203.209 2468.44,194.773 2468.44,194.773L2468.44,135.869C2468.44,135.869 2468.29,127.433 2469.27,123.979C2471.14,117.348 2487.71,101.583 2487.71,101.583C2487.71,101.583 2503.94,85.842 2511.34,84.969C2518.15,84.167 2527.64,84.167 2527.64,84.167C2527.64,84.167 2631.62,83.72 2632.82,83.759C2637.61,83.917 2642.7,83.825 2643.05,85.546C2643.4,87.267 2610.39,117.177 2607.02,118.571C2603.9,119.864 2596.82,119.867 2596.82,119.867L2530.82,119.829C2530.82,119.829 2524.16,119.595 2520.37,121.235C2516.57,122.874 2512.42,127.318 2512.42,127.318C2512.42,127.318 2506.52,132.887 2505.2,136.304C2503.89,139.721 2504.02,147.342 2504.02,147.342L2504.02,183.3C2504.02,183.3 2503.89,190.921 2505.2,194.338C2506.52,197.754 2512.42,203.324 2512.42,203.324C2512.42,203.324 2516.57,207.767 2520.37,209.407C2524.16,211.046 2530.82,210.813 2530.82,210.813C2530.82,210.813 2596.06,209.896 2602.86,210.698C2610.27,211.571 2626.5,227.312 2626.5,227.312C2626.5,227.312 2643.07,243.077 2644.94,249.708C2645.92,253.162 2645.77,261.598 2645.77,261.598L2645.77,320.502C2645.77,320.502 2645.92,328.938 2644.94,332.392C2643.07,339.023 2626.5,354.788 2626.5,354.788C2626.5,354.788 2610.27,370.529 2602.86,371.402C2596.06,372.204 2586.56,372.204 2586.56,372.204C2586.56,372.204 2482.59,372.651 2481.39,372.612C2476.6,372.453 2471.51,372.546 2471.16,370.825C2470.81,369.104 2503.81,339.194 2507.18,337.8C2510.31,336.507 2517.39,336.504 2517.39,336.504L2583.39,336.542C2583.39,336.542 2590.05,336.776 2593.84,335.136C2597.64,333.497 2601.78,329.053 2601.78,329.053C2601.78,329.053 2607.69,323.483 2609.01,320.067C2610.32,316.65 2610.19,309.029 2610.19,309.029L2610.19,273.071C2610.19,273.071 2610.32,265.45 2609.01,262.033C2607.69,258.617 2601.78,253.047 2601.78,253.047C2601.78,253.047 2597.64,248.604 2593.84,246.964C2590.05,245.324 2527.64,246.475 2527.64,246.475" style="fill-opacity:0;fill-rule:nonzero;stroke:rgb(88,182,204);stroke-width:3px;"/>
        </g>
        <g transform="matrix(1,0,0,1,13,0)">
            <path d="M775.233,234.662C775.233,234.662 775.469,360.885 775.51,362.144C775.668,366.952 775.576,372.048 777.293,372.401C779.01,372.754 808.405,342.469 809.643,340.226C810.881,337.983 810.933,332.037 810.917,330.404C810.901,328.771 810.917,240.404 810.917,240.404C810.917,240.404 810.312,236.781 814.626,232.233C814.626,232.233 849.734,203.062 855.861,203.062C861.988,203.062 892.636,228.385 896.951,232.699C901.265,237.014 900.917,240.404 900.917,240.404C900.87,322.632 901.274,360.886 901.316,362.144C901.474,366.952 901.382,372.048 903.099,372.401C904.816,372.754 934.405,342.469 935.643,340.226C936.881,337.983 936.933,332.037 936.917,330.404C936.901,328.771 936.875,288.89 936.917,240.404C936.917,240.404 936.466,235.583 940.715,231.608C944.964,227.634 976.356,204.197 982.029,203.97C987.702,203.743 1017.61,226.846 1021.79,231.283C1025.97,235.72 1026.92,240.404 1026.92,240.404C1026.87,322.632 1026.84,360.886 1026.88,362.144C1027.04,366.952 1026.95,372.048 1028.67,372.401C1030.38,372.754 1060.43,342.469 1061.67,340.226C1062.9,337.983 1062.96,332.037 1062.94,330.404C1062.92,328.771 1062.9,282.89 1062.94,234.404C1062.94,234.404 1061.35,220.956 1058.15,214.8C1054.96,208.643 1050.56,204.197 1050.56,204.197C1050.56,204.197 990.198,156.09 982.483,156.317C974.767,156.544 926.377,198.057 918.917,198.404C911.456,198.751 863.349,156.317 855.861,156.317C848.373,156.317 787.815,203.997 787.815,203.997C787.815,203.997 783.045,208.004 779.611,214.681C776.177,221.358 775.233,234.662 775.233,234.662Z" style="fill:rgb(204,94,88);fill-rule:nonzero;"/>
            <path d="M775.233,234.662C775.233,234.662 775.469,360.885 775.51,362.144C775.668,366.952 775.576,372.048 777.293,372.401C779.01,372.754 808.405,342.469 809.643,340.226C810.881,337.983 810.933,332.037 810.917,330.404C810.901,328.771 810.917,240.404 810.917,240.404C810.917,240.404 810.312,236.781 814.626,232.233C814.626,232.233 849.734,203.062 855.861,203.062C861.988,203.062 892.636,228.385 896.951,232.699C901.265,237.014 900.917,240.404 900.917,240.404C900.87,322.632 901.274,360.886 901.316,362.144C901.474,366.952 901.382,372.048 903.099,372.401C904.816,372.754 934.405,342.469 935.643,340.226C936.881,337.983 936.933,332.037 936.917,330.404C936.901,328.771 936.875,288.89 936.917,240.404C936.917,240.404 936.466,235.583 940.715,231.608C944.964,227.634 976.356,204.197 982.029,203.97C987.702,203.743 1017.61,226.846 1021.79,231.283C1025.97,235.72 1026.92,240.404 1026.92,240.404C1026.87,322.632 1026.84,360.886 1026.88,362.144C1027.04,366.952 1026.95,372.048 1028.67,372.401C1030.38,372.754 1060.43,342.469 1061.67,340.226C1062.9,337.983 1062.96,332.037 1062.94,330.404C1062.92,328.771 1062.9,282.89 1062.94,234.404C1062.94,234.404 1061.35,220.956 1058.15,214.8C1054.96,208.643 1050.56,204.197 1050.56,204.197C1050.56,204.197 990.198,156.09 982.483,156.317C974.767,156.544 926.377,198.057 918.917,198.404C911.456,198.751 863.349,156.317 855.861,156.317C848.373,156.317 787.815,203.997 787.815,203.997C787.815,203.997 783.045,208.004 779.611,214.681C776.177,221.358 775.233,234.662 775.233,234.662Z" style="fill-opacity:0;fill-rule:nonzero;stroke:rgb(204,94,88);stroke-width:3px;"/>
        </g>
        <g transform="matrix(1,0,0,1,19,0)">
            <path d="M427.683,175.468C427.649,131.512 427.616,93.506 427.598,92.98C427.44,88.183 427.532,83.099 425.811,82.747C424.09,82.395 394.401,116.237 393.007,119.609C391.714,122.735 392.169,129.173 392.169,129.173C392.861,182.918 392.091,319.809 392.091,319.809C392.091,319.809 391.807,328.42 393.252,332.362C394.698,336.304 399.954,341.823 399.954,341.823L427.364,364.216C427.364,364.216 435.267,370.274 438.473,371.343C441.679,372.412 449.602,372.64 449.602,372.64C449.602,372.64 515.967,372.559 517.16,372.52C521.956,372.361 527.041,372.453 527.393,370.733C527.745,369.012 496.357,340.558 492.985,339.164C489.859,337.871 482.778,337.868 482.778,337.868L459.564,337.94C459.564,337.94 452.499,337.542 448.707,335.902C444.915,334.263 431.073,323.884 428.995,319.615C427.349,314.458 427.812,308.577 427.812,308.577C427.812,308.577 427.489,270.731 427.43,223.117C427.428,221.081 427.682,219.594 428.899,218.378C430.065,217.211 430.899,216.994 434.727,216.962C449.568,216.837 481.938,216.988 482.856,216.957C487.653,216.799 492.737,216.891 493.089,215.17C493.441,213.449 462.053,184.996 458.682,183.601C455.556,182.308 448.475,182.305 448.475,182.305L436.11,182.305C431.704,182.305 430.679,182.364 428.98,180.826C427.302,179.308 427.683,175.468 427.683,175.468Z" style="fill:rgb(204,94,88);fill-rule:nonzero;"/>
            <path d="M427.683,175.468C427.649,131.512 427.616,93.506 427.598,92.98C427.44,88.183 427.532,83.099 425.811,82.747C424.09,82.395 394.401,116.237 393.007,119.609C391.714,122.735 392.169,129.173 392.169,129.173C392.861,182.918 392.091,319.809 392.091,319.809C392.091,319.809 391.807,328.42 393.252,332.362C394.698,336.304 399.954,341.823 399.954,341.823L427.364,364.216C427.364,364.216 435.267,370.274 438.473,371.343C441.679,372.412 449.602,372.64 449.602,372.64C449.602,372.64 515.967,372.559 517.16,372.52C521.956,372.361 527.041,372.453 527.393,370.733C527.745,369.012 496.357,340.558 492.985,339.164C489.859,337.871 482.778,337.868 482.778,337.868L459.564,337.94C459.564,337.94 452.499,337.542 448.707,335.902C444.915,334.263 431.073,323.884 428.995,319.615C427.349,314.458 427.812,308.577 427.812,308.577C427.812,308.577 427.489,270.731 427.43,223.117C427.428,221.081 427.682,219.594 428.899,218.378C430.065,217.211 430.899,216.994 434.727,216.962C449.568,216.837 481.938,216.988 482.856,216.957C487.653,216.799 492.737,216.891 493.089,215.17C493.441,213.449 462.053,184.996 458.682,183.601C455.556,182.308 448.475,182.305 448.475,182.305L436.11,182.305C431.704,182.305 430.679,182.364 428.98,180.826C427.302,179.308 427.683,175.468 427.683,175.468Z" style="fill-opacity:0;fill-rule:nonzero;stroke:rgb(204,94,88);stroke-width:3px;"/>
        </g>
    </g>
    <g id="Layer1">
        <g transform="matrix(0.849001,0,0,0.849001,226.263,18.992)">
            <path d="M1498.44,106.068L1514.68,77.945L1710.59,77.945L1808.55,247.612L1710.59,417.279L1580.37,417.279C1586.56,405.452 1595.58,394.347 1608.72,387.303C1650.04,365.156 1706.27,391.995 1706.27,391.995C1706.27,391.995 1643.18,331.046 1671.12,284.17C1696.12,242.221 1753.44,228.974 1765.21,226.654C1752.75,224.378 1679.41,210.168 1661.74,188.003C1649.81,173.05 1678.97,113.144 1678.97,113.144C1678.97,113.144 1615.86,154.295 1565.86,152.715C1533.36,151.689 1511.63,127.956 1498.44,106.068Z" style="fill:rgb(88,182,204);stroke:rgb(88,182,204);stroke-width:1.18px;stroke-linecap:round;stroke-linejoin:round;stroke-miterlimit:1.5;"/>
        </g>
        <g transform="matrix(1,0,0,1,-0.521145,-32.6598)">
            <path d="M1581.24,269.386C1585.76,257.271 1530.21,237.132 1520.32,248.504C1506.13,264.816 1488.6,305.29 1495.28,311.133C1501.97,316.976 1576.09,283.198 1581.24,269.386Z" style="fill:rgb(204,94,88);stroke:rgb(204,94,88);stroke-width:1px;stroke-linecap:round;stroke-linejoin:round;stroke-miterlimit:1.5;"/>
        </g>
    </g>
</svg>
